<mxfile host="app.diagrams.net" agent="Mozilla/5.0 (Windows NT 10.0; Win64; x64) AppleWebKit/537.36 (KHTML, like Gecko) Chrome/133.0.0.0 Safari/537.36" version="26.0.16">
  <diagram name="Page-1" id="SfNQfvxZLO02fJ4jTmW9">
    <mxGraphModel dx="1147" dy="1782" grid="1" gridSize="10" guides="1" tooltips="1" connect="1" arrows="1" fold="1" page="1" pageScale="1" pageWidth="850" pageHeight="1100" math="0" shadow="0">
      <root>
        <mxCell id="0" />
        <mxCell id="1" parent="0" />
        <mxCell id="bzrSZ7aLA33_47RsIpQv-3" value="" style="edgeStyle=orthogonalEdgeStyle;rounded=0;orthogonalLoop=1;jettySize=auto;html=1;" edge="1" parent="1" source="bzrSZ7aLA33_47RsIpQv-1" target="bzrSZ7aLA33_47RsIpQv-2">
          <mxGeometry relative="1" as="geometry" />
        </mxCell>
        <mxCell id="bzrSZ7aLA33_47RsIpQv-1" value="Start WDT_INSTALL_TIMEOUT" style="ellipse;whiteSpace=wrap;html=1;" vertex="1" parent="1">
          <mxGeometry x="290" y="70" width="300" height="40" as="geometry" />
        </mxCell>
        <mxCell id="bzrSZ7aLA33_47RsIpQv-5" value="" style="edgeStyle=orthogonalEdgeStyle;rounded=0;orthogonalLoop=1;jettySize=auto;html=1;" edge="1" parent="1" source="bzrSZ7aLA33_47RsIpQv-2" target="bzrSZ7aLA33_47RsIpQv-4">
          <mxGeometry relative="1" as="geometry" />
        </mxCell>
        <mxCell id="bzrSZ7aLA33_47RsIpQv-2" value="check for the flags and return the supported flags" style="whiteSpace=wrap;html=1;" vertex="1" parent="1">
          <mxGeometry x="270" y="140" width="340" height="60" as="geometry" />
        </mxCell>
        <mxCell id="bzrSZ7aLA33_47RsIpQv-12" value="" style="edgeStyle=orthogonalEdgeStyle;rounded=0;orthogonalLoop=1;jettySize=auto;html=1;" edge="1" parent="1" source="bzrSZ7aLA33_47RsIpQv-4" target="bzrSZ7aLA33_47RsIpQv-11">
          <mxGeometry relative="1" as="geometry" />
        </mxCell>
        <mxCell id="bzrSZ7aLA33_47RsIpQv-4" value="flag !=0&amp;nbsp;" style="rhombus;whiteSpace=wrap;html=1;" vertex="1" parent="1">
          <mxGeometry x="270" y="220" width="340" height="60" as="geometry" />
        </mxCell>
        <mxCell id="bzrSZ7aLA33_47RsIpQv-6" value="DECIDE whether normal&amp;nbsp; mode or window&amp;nbsp; mode" style="shape=callout;whiteSpace=wrap;html=1;perimeter=calloutPerimeter;position2=0.14;fillColor=#fff2cc;strokeColor=#d6b656;" vertex="1" parent="1">
          <mxGeometry x="620" y="-20" width="140" height="90" as="geometry" />
        </mxCell>
        <mxCell id="bzrSZ7aLA33_47RsIpQv-7" value="Validate the input flags" style="shape=callout;whiteSpace=wrap;html=1;perimeter=calloutPerimeter;position2=0.14;fillColor=#fff2cc;strokeColor=#d6b656;flipH=1;" vertex="1" parent="1">
          <mxGeometry x="70" y="100" width="190" height="90" as="geometry" />
        </mxCell>
        <mxCell id="bzrSZ7aLA33_47RsIpQv-9" value="the api must be called from the generic driver, but based on the hal driver it must be returned as unsupported or otherwise" style="shape=callout;whiteSpace=wrap;html=1;perimeter=calloutPerimeter;position2=0.14;fillColor=#dae8fc;strokeColor=#6c8ebf;flipH=1;" vertex="1" parent="1">
          <mxGeometry x="60" y="210" width="190" height="90" as="geometry" />
        </mxCell>
        <mxCell id="bzrSZ7aLA33_47RsIpQv-11" value="ret = mchp_flag_set(flags)" style="html=1;shadow=0;dashed=0;align=center;verticalAlign=middle;shape=mxgraph.arrows2.arrow;dy=0;dx=10;notch=0;" vertex="1" parent="1">
          <mxGeometry x="270" y="320" width="340" height="60" as="geometry" />
        </mxCell>
        <mxCell id="bzrSZ7aLA33_47RsIpQv-16" value="" style="edgeStyle=orthogonalEdgeStyle;rounded=0;orthogonalLoop=1;jettySize=auto;html=1;" edge="1" parent="1" source="bzrSZ7aLA33_47RsIpQv-14" target="bzrSZ7aLA33_47RsIpQv-15">
          <mxGeometry relative="1" as="geometry" />
        </mxCell>
        <mxCell id="bzrSZ7aLA33_47RsIpQv-14" value="mchp_flag_set(flags)" style="ellipse;whiteSpace=wrap;html=1;" vertex="1" parent="1">
          <mxGeometry x="1030" y="90" width="230" height="40" as="geometry" />
        </mxCell>
        <mxCell id="bzrSZ7aLA33_47RsIpQv-48" style="edgeStyle=orthogonalEdgeStyle;shape=connector;rounded=0;orthogonalLoop=1;jettySize=auto;html=1;strokeColor=default;strokeWidth=1;align=center;verticalAlign=middle;fontFamily=Helvetica;fontSize=11;fontColor=default;labelBackgroundColor=default;endArrow=classic;" edge="1" parent="1" source="bzrSZ7aLA33_47RsIpQv-15" target="bzrSZ7aLA33_47RsIpQv-19">
          <mxGeometry relative="1" as="geometry" />
        </mxCell>
        <mxCell id="bzrSZ7aLA33_47RsIpQv-49" style="edgeStyle=orthogonalEdgeStyle;shape=connector;rounded=0;orthogonalLoop=1;jettySize=auto;html=1;entryX=0.5;entryY=0;entryDx=0;entryDy=0;strokeColor=default;strokeWidth=1;align=center;verticalAlign=middle;fontFamily=Helvetica;fontSize=11;fontColor=default;labelBackgroundColor=default;endArrow=classic;" edge="1" parent="1" source="bzrSZ7aLA33_47RsIpQv-15" target="bzrSZ7aLA33_47RsIpQv-20">
          <mxGeometry relative="1" as="geometry" />
        </mxCell>
        <mxCell id="bzrSZ7aLA33_47RsIpQv-50" style="edgeStyle=orthogonalEdgeStyle;shape=connector;rounded=0;orthogonalLoop=1;jettySize=auto;html=1;entryX=0.5;entryY=0;entryDx=0;entryDy=0;strokeColor=default;strokeWidth=1;align=center;verticalAlign=middle;fontFamily=Helvetica;fontSize=11;fontColor=default;labelBackgroundColor=default;endArrow=classic;" edge="1" parent="1" source="bzrSZ7aLA33_47RsIpQv-15" target="bzrSZ7aLA33_47RsIpQv-31">
          <mxGeometry relative="1" as="geometry">
            <Array as="points">
              <mxPoint x="1145" y="230" />
              <mxPoint x="1427" y="230" />
            </Array>
          </mxGeometry>
        </mxCell>
        <mxCell id="bzrSZ7aLA33_47RsIpQv-51" style="edgeStyle=orthogonalEdgeStyle;shape=connector;rounded=0;orthogonalLoop=1;jettySize=auto;html=1;strokeColor=default;strokeWidth=1;align=center;verticalAlign=middle;fontFamily=Helvetica;fontSize=11;fontColor=default;labelBackgroundColor=default;endArrow=classic;" edge="1" parent="1" source="bzrSZ7aLA33_47RsIpQv-15" target="bzrSZ7aLA33_47RsIpQv-18">
          <mxGeometry relative="1" as="geometry">
            <Array as="points">
              <mxPoint x="1145" y="230" />
              <mxPoint x="863" y="230" />
            </Array>
          </mxGeometry>
        </mxCell>
        <mxCell id="bzrSZ7aLA33_47RsIpQv-15" value="flags" style="shape=hexagon;perimeter=hexagonPerimeter2;whiteSpace=wrap;html=1;fixedSize=1;" vertex="1" parent="1">
          <mxGeometry x="1085" y="160" width="120" height="50" as="geometry" />
        </mxCell>
        <mxCell id="bzrSZ7aLA33_47RsIpQv-30" value="" style="edgeStyle=orthogonalEdgeStyle;shape=connector;rounded=0;orthogonalLoop=1;jettySize=auto;html=1;strokeColor=default;strokeWidth=1;align=center;verticalAlign=middle;fontFamily=Helvetica;fontSize=11;fontColor=default;labelBackgroundColor=default;endArrow=classic;" edge="1" parent="1" source="bzrSZ7aLA33_47RsIpQv-18" target="bzrSZ7aLA33_47RsIpQv-29">
          <mxGeometry relative="1" as="geometry" />
        </mxCell>
        <mxCell id="bzrSZ7aLA33_47RsIpQv-18" value="WDT_FLAG_RESET_NONE" style="whiteSpace=wrap;html=1;" vertex="1" parent="1">
          <mxGeometry x="777.5" y="250" width="170" height="40" as="geometry" />
        </mxCell>
        <mxCell id="bzrSZ7aLA33_47RsIpQv-35" value="" style="edgeStyle=orthogonalEdgeStyle;shape=connector;rounded=0;orthogonalLoop=1;jettySize=auto;html=1;strokeColor=default;strokeWidth=1;align=center;verticalAlign=middle;fontFamily=Helvetica;fontSize=11;fontColor=default;labelBackgroundColor=default;endArrow=classic;" edge="1" parent="1" source="bzrSZ7aLA33_47RsIpQv-19" target="bzrSZ7aLA33_47RsIpQv-34">
          <mxGeometry relative="1" as="geometry" />
        </mxCell>
        <mxCell id="bzrSZ7aLA33_47RsIpQv-19" value="&lt;span style=&quot;white-space: normal;&quot;&gt;WDT_FLAG_RESET_CPU_CORE&lt;/span&gt;" style="whiteSpace=wrap;html=1;" vertex="1" parent="1">
          <mxGeometry x="952.5" y="250" width="210" height="40" as="geometry" />
        </mxCell>
        <mxCell id="bzrSZ7aLA33_47RsIpQv-37" value="" style="edgeStyle=orthogonalEdgeStyle;shape=connector;rounded=0;orthogonalLoop=1;jettySize=auto;html=1;strokeColor=default;strokeWidth=1;align=center;verticalAlign=middle;fontFamily=Helvetica;fontSize=11;fontColor=default;labelBackgroundColor=default;endArrow=classic;" edge="1" parent="1" source="bzrSZ7aLA33_47RsIpQv-20" target="bzrSZ7aLA33_47RsIpQv-36">
          <mxGeometry relative="1" as="geometry" />
        </mxCell>
        <mxCell id="bzrSZ7aLA33_47RsIpQv-20" value="&lt;span style=&quot;white-space: normal;&quot;&gt;WDT_FLAG_RESET_SOC&amp;nbsp;&lt;/span&gt;" style="whiteSpace=wrap;html=1;" vertex="1" parent="1">
          <mxGeometry x="1167.5" y="250" width="170" height="40" as="geometry" />
        </mxCell>
        <mxCell id="bzrSZ7aLA33_47RsIpQv-44" value="" style="edgeStyle=orthogonalEdgeStyle;shape=connector;rounded=0;orthogonalLoop=1;jettySize=auto;html=1;strokeColor=default;strokeWidth=1;align=center;verticalAlign=middle;fontFamily=Helvetica;fontSize=11;fontColor=default;labelBackgroundColor=default;endArrow=classic;" edge="1" parent="1" source="bzrSZ7aLA33_47RsIpQv-29" target="bzrSZ7aLA33_47RsIpQv-40">
          <mxGeometry relative="1" as="geometry" />
        </mxCell>
        <mxCell id="bzrSZ7aLA33_47RsIpQv-29" value="set the register" style="whiteSpace=wrap;html=1;" vertex="1" parent="1">
          <mxGeometry x="777.5" y="320" width="170" height="40" as="geometry" />
        </mxCell>
        <mxCell id="bzrSZ7aLA33_47RsIpQv-39" value="" style="edgeStyle=orthogonalEdgeStyle;shape=connector;rounded=0;orthogonalLoop=1;jettySize=auto;html=1;strokeColor=default;strokeWidth=1;align=center;verticalAlign=middle;fontFamily=Helvetica;fontSize=11;fontColor=default;labelBackgroundColor=default;endArrow=classic;" edge="1" parent="1" source="bzrSZ7aLA33_47RsIpQv-31" target="bzrSZ7aLA33_47RsIpQv-38">
          <mxGeometry relative="1" as="geometry" />
        </mxCell>
        <mxCell id="bzrSZ7aLA33_47RsIpQv-31" value="default" style="whiteSpace=wrap;html=1;" vertex="1" parent="1">
          <mxGeometry x="1342.5" y="250" width="170" height="40" as="geometry" />
        </mxCell>
        <mxCell id="bzrSZ7aLA33_47RsIpQv-32" value="This comes in handy, if more than one flag is sent." style="shape=callout;whiteSpace=wrap;html=1;perimeter=calloutPerimeter;position2=0.14;fillColor=#fff2cc;strokeColor=#d6b656;" vertex="1" parent="1">
          <mxGeometry x="1530" y="140" width="140" height="90" as="geometry" />
        </mxCell>
        <mxCell id="bzrSZ7aLA33_47RsIpQv-45" value="" style="edgeStyle=orthogonalEdgeStyle;shape=connector;rounded=0;orthogonalLoop=1;jettySize=auto;html=1;strokeColor=default;strokeWidth=1;align=center;verticalAlign=middle;fontFamily=Helvetica;fontSize=11;fontColor=default;labelBackgroundColor=default;endArrow=classic;" edge="1" parent="1" source="bzrSZ7aLA33_47RsIpQv-34" target="bzrSZ7aLA33_47RsIpQv-41">
          <mxGeometry relative="1" as="geometry" />
        </mxCell>
        <mxCell id="bzrSZ7aLA33_47RsIpQv-34" value="default behaviour" style="whiteSpace=wrap;html=1;" vertex="1" parent="1">
          <mxGeometry x="952.5" y="320" width="210" height="40" as="geometry" />
        </mxCell>
        <mxCell id="bzrSZ7aLA33_47RsIpQv-46" value="" style="edgeStyle=orthogonalEdgeStyle;shape=connector;rounded=0;orthogonalLoop=1;jettySize=auto;html=1;strokeColor=default;strokeWidth=1;align=center;verticalAlign=middle;fontFamily=Helvetica;fontSize=11;fontColor=default;labelBackgroundColor=default;endArrow=classic;" edge="1" parent="1" source="bzrSZ7aLA33_47RsIpQv-36" target="bzrSZ7aLA33_47RsIpQv-42">
          <mxGeometry relative="1" as="geometry" />
        </mxCell>
        <mxCell id="bzrSZ7aLA33_47RsIpQv-36" value="&lt;span style=&quot;white-space: normal;&quot;&gt;default behaviour&lt;/span&gt;" style="whiteSpace=wrap;html=1;" vertex="1" parent="1">
          <mxGeometry x="1167.5" y="320" width="170" height="40" as="geometry" />
        </mxCell>
        <mxCell id="bzrSZ7aLA33_47RsIpQv-47" value="" style="edgeStyle=orthogonalEdgeStyle;shape=connector;rounded=0;orthogonalLoop=1;jettySize=auto;html=1;strokeColor=default;strokeWidth=1;align=center;verticalAlign=middle;fontFamily=Helvetica;fontSize=11;fontColor=default;labelBackgroundColor=default;endArrow=classic;" edge="1" parent="1" source="bzrSZ7aLA33_47RsIpQv-38" target="bzrSZ7aLA33_47RsIpQv-43">
          <mxGeometry relative="1" as="geometry" />
        </mxCell>
        <mxCell id="bzrSZ7aLA33_47RsIpQv-38" value="invalid flag usage" style="whiteSpace=wrap;html=1;" vertex="1" parent="1">
          <mxGeometry x="1342.5" y="320" width="170" height="40" as="geometry" />
        </mxCell>
        <mxCell id="bzrSZ7aLA33_47RsIpQv-53" style="edgeStyle=orthogonalEdgeStyle;shape=connector;rounded=0;orthogonalLoop=1;jettySize=auto;html=1;entryX=0.5;entryY=0;entryDx=0;entryDy=0;strokeColor=default;strokeWidth=1;align=center;verticalAlign=middle;fontFamily=Helvetica;fontSize=11;fontColor=default;labelBackgroundColor=default;endArrow=classic;" edge="1" parent="1" source="bzrSZ7aLA33_47RsIpQv-40" target="bzrSZ7aLA33_47RsIpQv-52">
          <mxGeometry relative="1" as="geometry">
            <Array as="points">
              <mxPoint x="863" y="470" />
              <mxPoint x="1155" y="470" />
            </Array>
          </mxGeometry>
        </mxCell>
        <mxCell id="bzrSZ7aLA33_47RsIpQv-40" value="ret = -1" style="whiteSpace=wrap;html=1;" vertex="1" parent="1">
          <mxGeometry x="777.5" y="390" width="170" height="40" as="geometry" />
        </mxCell>
        <mxCell id="bzrSZ7aLA33_47RsIpQv-54" style="edgeStyle=orthogonalEdgeStyle;shape=connector;rounded=0;orthogonalLoop=1;jettySize=auto;html=1;strokeColor=default;strokeWidth=1;align=center;verticalAlign=middle;fontFamily=Helvetica;fontSize=11;fontColor=default;labelBackgroundColor=default;endArrow=classic;entryX=0.5;entryY=0;entryDx=0;entryDy=0;" edge="1" parent="1" source="bzrSZ7aLA33_47RsIpQv-41" target="bzrSZ7aLA33_47RsIpQv-52">
          <mxGeometry relative="1" as="geometry">
            <mxPoint x="1150" y="480" as="targetPoint" />
            <Array as="points">
              <mxPoint x="1057" y="470" />
              <mxPoint x="1155" y="470" />
            </Array>
          </mxGeometry>
        </mxCell>
        <mxCell id="bzrSZ7aLA33_47RsIpQv-41" value="ret = 0" style="whiteSpace=wrap;html=1;" vertex="1" parent="1">
          <mxGeometry x="952.5" y="390" width="210" height="40" as="geometry" />
        </mxCell>
        <mxCell id="bzrSZ7aLA33_47RsIpQv-55" style="edgeStyle=orthogonalEdgeStyle;shape=connector;rounded=0;orthogonalLoop=1;jettySize=auto;html=1;entryX=0.5;entryY=0;entryDx=0;entryDy=0;strokeColor=default;strokeWidth=1;align=center;verticalAlign=middle;fontFamily=Helvetica;fontSize=11;fontColor=default;labelBackgroundColor=default;endArrow=classic;" edge="1" parent="1" source="bzrSZ7aLA33_47RsIpQv-42" target="bzrSZ7aLA33_47RsIpQv-52">
          <mxGeometry relative="1" as="geometry">
            <Array as="points">
              <mxPoint x="1253" y="470" />
              <mxPoint x="1155" y="470" />
            </Array>
          </mxGeometry>
        </mxCell>
        <mxCell id="bzrSZ7aLA33_47RsIpQv-42" value="&lt;span style=&quot;white-space: normal;&quot;&gt;ret = 0&lt;/span&gt;" style="whiteSpace=wrap;html=1;" vertex="1" parent="1">
          <mxGeometry x="1167.5" y="390" width="170" height="40" as="geometry" />
        </mxCell>
        <mxCell id="bzrSZ7aLA33_47RsIpQv-56" style="edgeStyle=orthogonalEdgeStyle;shape=connector;rounded=0;orthogonalLoop=1;jettySize=auto;html=1;entryX=0.5;entryY=0;entryDx=0;entryDy=0;strokeColor=default;strokeWidth=1;align=center;verticalAlign=middle;fontFamily=Helvetica;fontSize=11;fontColor=default;labelBackgroundColor=default;endArrow=classic;" edge="1" parent="1" source="bzrSZ7aLA33_47RsIpQv-43" target="bzrSZ7aLA33_47RsIpQv-52">
          <mxGeometry relative="1" as="geometry">
            <Array as="points">
              <mxPoint x="1427" y="470" />
              <mxPoint x="1155" y="470" />
            </Array>
          </mxGeometry>
        </mxCell>
        <mxCell id="bzrSZ7aLA33_47RsIpQv-43" value="ret = -4" style="whiteSpace=wrap;html=1;" vertex="1" parent="1">
          <mxGeometry x="1342.5" y="390" width="170" height="40" as="geometry" />
        </mxCell>
        <mxCell id="bzrSZ7aLA33_47RsIpQv-52" value="return ret" style="ellipse;whiteSpace=wrap;html=1;" vertex="1" parent="1">
          <mxGeometry x="1040" y="490" width="230" height="40" as="geometry" />
        </mxCell>
      </root>
    </mxGraphModel>
  </diagram>
</mxfile>
